<?xml version="1.0" encoding="UTF-8" standalone="no"?>
<!-- Created with Inkscape (http://www.inkscape.org/) -->

<svg
   xmlns:dc="http://purl.org/dc/elements/1.1/"
   xmlns:cc="http://creativecommons.org/ns#"
   xmlns:rdf="http://www.w3.org/1999/02/22-rdf-syntax-ns#"
   xmlns:svg="http://www.w3.org/2000/svg"
   xmlns="http://www.w3.org/2000/svg"
   xmlns:sodipodi="http://sodipodi.sourceforge.net/DTD/sodipodi-0.dtd"
   xmlns:inkscape="http://www.inkscape.org/namespaces/inkscape"
   width="151.40781mm"
   height="195.26852mm"
   viewBox="0 0 151.40781 195.26852"
   version="1.1"
   id="svg8"
   inkscape:version="0.92.4 (5da689c313, 2019-01-14)"
   sodipodi:docname="logo_3.svg">
  <defs
     id="defs2">
    <inkscape:perspective
       sodipodi:type="inkscape:persp3d"
       inkscape:vp_x="0 : 79.805124 : 1"
       inkscape:vp_y="0 : 1000.0001 : 0"
       inkscape:vp_z="151.40781 : 79.805124 : 1"
       inkscape:persp3d-origin="75.703905 : 53.203416 : 1"
       id="perspective1212" />
  </defs>
  <sodipodi:namedview
     id="base"
     pagecolor="#ffffff"
     bordercolor="#666666"
     borderopacity="1.0"
     inkscape:pageopacity="0.0"
     inkscape:pageshadow="2"
     inkscape:zoom="0.7"
     inkscape:cx="332.87583"
     inkscape:cy="328.74292"
     inkscape:document-units="mm"
     inkscape:current-layer="layer1"
     showgrid="false"
     inkscape:window-width="1920"
     inkscape:window-height="1001"
     inkscape:window-x="-9"
     inkscape:window-y="-9"
     inkscape:window-maximized="1"
     fit-margin-top="0"
     fit-margin-left="0"
     fit-margin-right="0"
     fit-margin-bottom="0" />
  <metadata
     id="metadata5">
    <rdf:RDF>
      <cc:Work
         rdf:about="">
        <dc:format>image/svg+xml</dc:format>
        <dc:type
           rdf:resource="http://purl.org/dc/dcmitype/StillImage" />
        <dc:title></dc:title>
      </cc:Work>
    </rdf:RDF>
  </metadata>
  <g
     inkscape:label="Layer 1"
     inkscape:groupmode="layer"
     id="layer1"
     transform="translate(44.773322,1.5316976)">
    <text
       xml:space="preserve"
       style="font-style:normal;font-variant:normal;font-weight:normal;font-stretch:normal;font-size:50.79999924px;line-height:0.89999998;font-family:sans-serif;-inkscape-font-specification:sans-serif;letter-spacing:0px;word-spacing:0px;fill:#0072d8;fill-opacity:1;stroke:none;stroke-width:0.26458332;"
       x="-27.875179"
       y="193.73683"
       id="text4520"><tspan
         sodipodi:role="line"
         id="tspan4518"
         x="-27.875179"
         y="193.73683"
         style="font-style:normal;font-variant:normal;font-weight:normal;font-stretch:normal;font-family:Raleway;-inkscape-font-specification:Raleway;fill:#0072d8;fill-opacity:1;stroke-width:0.26458332;">rheia</tspan></text>
    <g
       id="g1747"
       transform="matrix(0.33883492,0,0,0.33883492,-61.223358,-1.5317813)">
      <g
         id="g1689" />
      <g
         id="g1691" />
      <g
         id="g1693" />
      <g
         id="g1695" />
      <g
         id="g1697" />
      <g
         id="g1699" />
      <g
         id="g1701" />
      <g
         id="g1703" />
      <g
         id="g1705" />
      <g
         id="g1707" />
      <g
         id="g1709" />
      <g
         id="g1711" />
      <g
         id="g1713" />
      <g
         id="g1715" />
      <g
         id="g1717" />
    </g>
    <g
       id="g131"
       transform="matrix(0.26458333,0,0,0.26458333,15.109966,90.755136)">
      <path
         id="path92"
         d="m -231.14566,210.15867 c 13.17274,-0.0574 26.34257,-0.17527 39.50947,-0.52884 12.59163,-0.34148 25.22707,-0.89751 37.73694,-2.52634 13.24575,-1.72854 26.25496,-4.59938 38.72395,-9.82127 12.42518,-5.20679 23.407822,-13.09706 33.555301,-22.32906 9.864226,-8.96909 18.496154,-19.98403 26.088512,-31.19842 7.814289,-11.53472 15.056231,-23.50157 21.778389,-35.82198 6.926567,-12.692116 13.56112,-25.559502 20.137271,-38.466173 C -7.1681631,56.813758 -0.71173803,44.179061 5.9929,31.686395 12.54569,19.471747 19.62702,7.3447344 27.91729,-3.5916369 c 4.29553,-5.6661222 9.02907,-10.7157701 14.3262,-15.2728431 5.15404,-4.433174 11.37686,-6.92929 17.88877,-7.458128 6.60535,-0.534882 12.87196,2.961493 18.1983,6.750996 5.44897,3.877138 9.98687,9.325681 14.19479,14.6382373 8.68157,10.9363713 15.66654,23.4018397 22.49674,35.7252777 6.61995,11.945697 12.73764,24.217762 18.94877,36.411257 6.54111,12.84321 13.0793,25.692465 19.97667,38.32414 6.68711,12.25696 13.69544,24.35073 21.47469,35.83407 7.9749,11.77949 16.71487,22.85789 26.74554,32.66406 9.86423,9.63392 21.1272,17.14342 33.33922,22.74608 11.75063,5.39415 24.64596,8.33751 37.28432,9.98748 12.99169,1.70135 26.02427,2.42662 39.10065,2.83458 12.92453,0.40796 25.86074,0.49559 38.79111,0.55905 0.66287,0 1.31114,0.006 1.96817,0.009"
         stroke-miterlimit="10"
         inkscape:connector-curvature="0"
         style="fill:none;stroke:#a2a2a2;stroke-width:3.77952761;stroke-linecap:round;stroke-linejoin:round;stroke-miterlimit:10;stroke-dasharray:none;stroke-opacity:1" />
      <path
         id="path92-8"
         d="m -110.77077,209.80231 c 7.83719,-0.11027 15.672641,-0.33671 23.506353,-1.01593 7.491452,-0.65599 15.008969,-1.72415 22.451778,-4.85319 7.880624,-3.3206 15.620517,-8.83559 23.039004,-18.86705 7.392422,-10.00244 13.926604,-25.15996 19.963891,-42.89499 5.868772,-17.22998 11.004378,-38.39011 15.5214975,-59.933386 4.64915,-22.158647 8.95777,-45.147433 12.95716,-68.815421 4.1209905,-24.382039 8.0682505,-49.100797 11.9807605,-73.895014 3.83607,-24.30658 7.67736,-48.578329 11.66631,-72.577239 3.89861,-23.46481 8.11168,-46.76127 13.04402,-67.77047 2.55565,-10.88484 5.37189,-20.58541 8.52344,-29.33972 3.06643,-8.51631 6.76872,-13.31144 10.64302,-14.32736 3.92988,-1.02752 7.65823,5.68914 10.82716,12.96892 3.2419,7.44813 5.94174,17.91501 8.44526,28.12063 5.16515,21.00919 9.32089,44.95585 13.38455,68.62965 3.93857,22.94816 7.578316,46.523262 11.273656,69.947452 3.89167,24.672307 7.7816,49.356237 11.88522,73.6221682 3.97853,23.5460988 8.14817,46.7787028 12.77648,68.8386468 4.74471,22.628863 9.9446,43.910903 15.91239,62.748933 5.86877,18.50714 12.56973,32.93318 19.83533,43.69611 6.9911,10.36237 14.66324,16.01668 22.18249,19.18634 7.72947,3.26836 15.48327,4.66163 23.26313,5.44534 7.68951,0.7837 15.38597,0.95204 23.07896,1.07395 0.39438,0 0.78007,0.0115 1.17097,0.0173"
         stroke-miterlimit="10"
         inkscape:connector-curvature="0"
         style="fill:none;stroke:#0072d8;stroke-width:3.77952761;stroke-linecap:round;stroke-linejoin:round;stroke-miterlimit:10;stroke-dasharray:none;stroke-opacity:1" />
    </g>
    <text
       xml:space="preserve"
       style="font-style:normal;font-variant:normal;font-weight:normal;font-stretch:normal;font-size:50.79999924px;line-height:0.89999998;font-family:sans-serif;-inkscape-font-specification:sans-serif;letter-spacing:0px;word-spacing:0px;fill:#0072d8;fill-opacity:1;stroke:none;stroke-width:0.26458332"
       x="41.185791"
       y="38.911732"
       id="text4520-5"><tspan
         sodipodi:role="line"
         id="tspan4518-5"
         x="41.185791"
         y="38.911732"
         style="font-style:normal;font-variant:normal;font-weight:normal;font-stretch:normal;font-size:35.27777863px;font-family:Raleway;-inkscape-font-specification:Raleway;fill:#0072d8;fill-opacity:1;stroke-width:0.26458332">H<tspan
   style="font-size:64.99999762%;baseline-shift:sub"
   id="tspan971">2</tspan></tspan></text>
  </g>
</svg>
