<?xml version="1.0" encoding="UTF-8" standalone="no"?>
<!-- Created with Inkscape (http://www.inkscape.org/) -->

<svg
   xmlns:dc="http://purl.org/dc/elements/1.1/"
   xmlns:cc="http://creativecommons.org/ns#"
   xmlns:rdf="http://www.w3.org/1999/02/22-rdf-syntax-ns#"
   xmlns:svg="http://www.w3.org/2000/svg"
   xmlns="http://www.w3.org/2000/svg"
   xmlns:sodipodi="http://sodipodi.sourceforge.net/DTD/sodipodi-0.dtd"
   xmlns:inkscape="http://www.inkscape.org/namespaces/inkscape"
   width="151.40781mm"
   height="195.26852mm"
   viewBox="0 0 151.40781 195.26852"
   version="1.1"
   id="svg8"
   inkscape:version="0.92.4 (5da689c313, 2019-01-14)"
   sodipodi:docname="logo_2.svg">
  <defs
     id="defs2">
    <inkscape:perspective
       sodipodi:type="inkscape:persp3d"
       inkscape:vp_x="0 : 79.805124 : 1"
       inkscape:vp_y="0 : 1000.0001 : 0"
       inkscape:vp_z="151.40781 : 79.805124 : 1"
       inkscape:persp3d-origin="75.703905 : 53.203416 : 1"
       id="perspective1212" />
  </defs>
  <sodipodi:namedview
     id="base"
     pagecolor="#ffffff"
     bordercolor="#666666"
     borderopacity="1.0"
     inkscape:pageopacity="0.0"
     inkscape:pageshadow="2"
     inkscape:zoom="0.7"
     inkscape:cx="332.87583"
     inkscape:cy="328.74292"
     inkscape:document-units="mm"
     inkscape:current-layer="layer1"
     showgrid="false"
     inkscape:window-width="1920"
     inkscape:window-height="1001"
     inkscape:window-x="-9"
     inkscape:window-y="-9"
     inkscape:window-maximized="1"
     fit-margin-top="0"
     fit-margin-left="0"
     fit-margin-right="0"
     fit-margin-bottom="0" />
  <metadata
     id="metadata5">
    <rdf:RDF>
      <cc:Work
         rdf:about="">
        <dc:format>image/svg+xml</dc:format>
        <dc:type
           rdf:resource="http://purl.org/dc/dcmitype/StillImage" />
        <dc:title />
      </cc:Work>
    </rdf:RDF>
  </metadata>
  <g
     inkscape:label="Layer 1"
     inkscape:groupmode="layer"
     id="layer1"
     transform="translate(44.773322,1.5316976)">
    <text
       xml:space="preserve"
       style="font-style:normal;font-variant:normal;font-weight:normal;font-stretch:normal;font-size:50.79999924px;line-height:0.89999998;font-family:sans-serif;-inkscape-font-specification:sans-serif;letter-spacing:0px;word-spacing:0px;fill:#43a248;fill-opacity:1;stroke:none;stroke-width:0.26458332"
       x="-27.875179"
       y="193.73683"
       id="text4520"><tspan
         sodipodi:role="line"
         id="tspan4518"
         x="-27.875179"
         y="193.73683"
         style="font-style:normal;font-variant:normal;font-weight:normal;font-stretch:normal;font-family:Raleway;-inkscape-font-specification:Raleway;fill:#43a248;fill-opacity:1;stroke-width:0.26458332">rheia</tspan></text>
    <g
       id="g1747"
       transform="matrix(0.33883492,0,0,0.33883492,-61.223358,-1.5317813)">
      <g
         id="g1689" />
      <g
         id="g1691" />
      <g
         id="g1693" />
      <g
         id="g1695" />
      <g
         id="g1697" />
      <g
         id="g1699" />
      <g
         id="g1701" />
      <g
         id="g1703" />
      <g
         id="g1705" />
      <g
         id="g1707" />
      <g
         id="g1709" />
      <g
         id="g1711" />
      <g
         id="g1713" />
      <g
         id="g1715" />
      <g
         id="g1717" />
    </g>
    <g
       id="g1784"
       transform="translate(18.975427)">
      <g
         style="fill:#848484;fill-opacity:1;stroke:none;stroke-opacity:1"
         id="g1681"
         transform="matrix(0.33883492,0,0,0.33883492,-61.223359,-1.5317823)">
        <g
           style="fill:#848484;fill-opacity:1;stroke:none;stroke-opacity:1"
           id="g1679">
          <path
             style="fill:#848484;fill-opacity:1;stroke:none;stroke-opacity:1"
             inkscape:connector-curvature="0"
             d="m 385.731,27.51 c 0.035,-4.418 -3.518,-8.028 -7.936,-8.063 -1.152,-0.009 -2.293,0.231 -3.344,0.703 -50.385,23.45 -109.694,16.419 -153.2,-18.16 -3.02,-2.653 -7.54,-2.653 -10.56,0 -43.689,34.137 -102.741,41.137 -153.2,18.16 -4.03,-1.812 -8.765,-0.013 -10.577,4.016 -0.472,1.051 -0.712,2.191 -0.703,3.344 0,1.68 0.56,166.64 0,221.28 -0.32,29.2 67.84,124 165.68,182.08 2.475,1.429 5.525,1.429 8,0 98,-58.08 166.16,-152.88 165.84,-182.08 -0.56,-54.64 0,-219.6 0,-221.28 z m -16,221.36 c 0,17.6 -56,106 -153.76,165.76 -98.08,-59.68 -153.92,-148.08 -153.76,-165.68 0.48,-46.16 0.16,-170.4 0,-209.6 51.607,18.884 109.222,10.91 153.76,-21.28 44.538,32.19 102.153,40.164 153.76,21.28 0,39.12 -0.4,163.44 0,209.52 z"
             id="path1677" />
        </g>
      </g>
      <g
         style="fill:#848484;fill-opacity:1;stroke:none;stroke-opacity:1"
         id="g1687"
         transform="matrix(0.33883492,0,0,0.33883492,-61.223359,-1.5317823)">
        <g
           style="fill:#848484;fill-opacity:1;stroke:none;stroke-opacity:1"
           id="g1685">
          <path
             style="fill:#848484;fill-opacity:1;stroke:none;stroke-opacity:1"
             inkscape:connector-curvature="0"
             d="m 343.971,76.15 c 0.035,-4.418 -3.518,-8.028 -7.936,-8.063 -1.152,-0.009 -2.293,0.231 -3.344,0.703 -36.571,17.193 -79.719,12.237 -111.44,-12.8 -3.02,-2.653 -7.54,-2.653 -10.56,0 -31.728,24.747 -74.583,29.803 -111.2,13.12 -4.03,-1.812 -8.765,-0.013 -10.577,4.016 -0.472,1.051 -0.712,2.192 -0.703,3.344 0,1.2 0.4,123.36 0,163.84 -0.24,22 50.64,93.2 123.68,136.56 v 0 c 2.475,1.429 5.525,1.429 8,0 73.2,-43.36 124.08,-114.56 124.08,-136.88 -0.4,-40.48 0,-162.56 0,-163.84 z m -16,163.84 c 0,11.28 -40,76.32 -112,120 -71.44,-43.92 -112,-108.96 -112,-120 0.56,-32.64 0,-120 0,-152 37.708,13.262 79.514,7.29 112,-16 32.486,23.29 74.292,29.262 112,16 z"
             id="path1683" />
        </g>
      </g>
      <text
         id="text4520-8"
         y="74.689026"
         x="-7.935452"
         style="font-style:normal;font-variant:normal;font-weight:normal;font-stretch:normal;font-size:50.79999924px;line-height:0.89999998;font-family:sans-serif;-inkscape-font-specification:sans-serif;letter-spacing:0px;word-spacing:0px;fill:#43a248;fill-opacity:1;stroke:none;stroke-width:0.26458332"
         xml:space="preserve"><tspan
           style="font-style:normal;font-variant:normal;font-weight:normal;font-stretch:normal;font-size:35.27777863px;font-family:raleway;-inkscape-font-specification:raleway;fill:#43a248;fill-opacity:1;stroke-width:0.26458332"
           y="74.689026"
           x="-7.935452"
           id="tspan4518-2"
           sodipodi:role="line">H<tspan
   style="font-size:64.99999762%;baseline-shift:sub;-inkscape-font-specification:raleway;font-family:raleway;font-weight:normal;font-style:normal;font-stretch:normal;font-variant:normal"
   id="tspan2367">2</tspan></tspan></text>
    </g>
  </g>
</svg>
